# xmcd
#
# Track frame offsets: 
#        150
#        19657
#        36577
#        52150
#        69440
#        85450
#        104725
#        120627
#        134530
#        153230
#
# Disc length: 2328 seconds
#
# Revision: 0
# Processed by: cddbd v1.5.2PL0 Copyright (c) Steve Scherf et al.
# Submitted via: ExactAudioCopyFreeDBPlugin 1.0
#
DISCID=9009160a
DTITLE=Lisa-Marie Fischer - Lisa-Marie Fischer
DYEAR=2011
DGENRE=Country
TTITLE0=The Redemption Song
TTITLE1=From the Heart
TTITLE2=Come Here
TTITLE3=Keep the Memory
TTITLE4=Valentine's Day
TTITLE5=Two Hearts
TTITLE6=When I'm Grown Up
TTITLE7=Key West
TTITLE8=Angel From Montgomery
TTITLE9=On the Road
EXTD=
EXTT0=
EXTT1=
EXTT2=
EXTT3=
EXTT4=
EXTT5=
EXTT6=
EXTT7=
EXTT8=
EXTT9=
PLAYORDER=
